<svg width="67" height="65" viewBox="0 0 67 65" fill="none" xmlns="http://www.w3.org/2000/svg">
<path d="M66.5 32.5519C66.5 50.1229 51.7421 64.3967 33.5 64.3967C15.2579 64.3967 0.5 50.1229 0.5 32.5519C0.5 14.9808 15.2579 0.707031 33.5 0.707031C51.7421 0.707031 66.5 14.9808 66.5 32.5519Z" stroke="#757575"/>
<path d="M42.5514 30.957H41.8499L42.0788 31.6201C42.2748 32.1877 42.38 32.9753 42.38 33.6776C42.38 37.704 38.8048 41.1083 34.3375 41.1083C29.8713 41.1083 26.3027 37.7081 26.4044 33.5841L26.4045 33.5841V33.5718C26.4045 32.8817 26.5065 32.1892 26.7125 31.4931L26.9025 30.8512H26.2331H23.7141H23.2141V31.3512V42.6657C23.2141 43.624 24.0358 44.2231 24.8093 44.2231H43.8657C44.8148 44.2231 45.4609 43.4544 45.4609 42.6657V31.457V30.957H44.9609H42.5514ZM24.1522 20.1138H44.5228C46.5632 20.1138 48.075 21.5982 48.075 23.5263V43.1944C48.075 45.1225 46.5632 46.6069 44.5228 46.6069H24.1522C22.1118 46.6069 20.6 45.1225 20.6 43.1944V23.5263C20.6 21.5982 22.1118 20.1138 24.1522 20.1138ZM28.3615 33.2546C28.3615 36.4086 31.0182 38.936 34.3375 38.936C37.6499 38.936 40.3135 36.5208 40.3135 33.2546C40.3135 30.1005 37.6568 27.5732 34.3375 27.5732C31.0182 27.5732 28.3615 30.1005 28.3615 33.2546ZM43.6466 28.7847C44.5632 28.7847 45.3514 28.0485 45.3514 27.1215V24.2664C45.3514 23.3395 44.5632 22.6033 43.6466 22.6033H40.5801C39.6635 22.6033 38.8754 23.3395 38.8754 24.2664V27.1215C38.8754 28.0485 39.6635 28.7847 40.5801 28.7847H43.6466Z" fill="#757575" stroke="#757575"/>
</svg>
