<svg width="67" height="65" viewBox="0 0 67 65" fill="none" xmlns="http://www.w3.org/2000/svg">
<path d="M66.5 32.5519C66.5 50.1229 51.7421 64.3967 33.5 64.3967C15.2579 64.3967 0.5 50.1229 0.5 32.5519C0.5 14.9808 15.2579 0.707031 33.5 0.707031C51.7421 0.707031 66.5 14.9808 66.5 32.5519Z" stroke="#757575"/>
<path d="M15.8318 32.6862L15.8237 32.6833L15.8156 32.6807C15.4948 32.5775 15.4948 32.0974 15.8156 31.9942L15.8266 31.9906L15.8374 31.9866L47.5583 20.1391L47.5583 20.1391L47.5635 20.1371C47.6882 20.0889 47.82 20.117 47.9307 20.2163C48.0469 20.3204 48.0919 20.4613 48.069 20.5757C48.0689 20.5763 48.0687 20.5769 48.0686 20.5776L42.3259 47.0408L42.3259 47.0408L42.3249 47.0454C42.3002 47.1644 42.2152 47.2584 42.0821 47.3037C41.9456 47.3503 41.7909 47.3322 41.6718 47.246L41.6718 47.246L41.6663 47.2421L33.9671 41.8243C33.3078 41.3486 32.3903 41.2866 31.7828 41.8529L27.502 45.2346C27.3548 45.338 27.1786 45.3654 27.0485 45.3359C26.9324 45.3095 26.8759 45.2499 26.8562 45.1548L26.8508 45.1286L26.8426 45.1031L23.8402 35.7763L23.7649 35.5423L23.5336 35.4591L15.8318 32.6862ZM27.5036 42.5562C27.8433 42.5263 28.2805 42.2695 28.3017 41.7657L28.69 38.7665L28.6941 38.7346V38.7023C28.6941 38.2874 28.9527 37.91 29.319 37.5551L41.6752 26.3785C41.8314 26.2779 41.9468 26.1196 41.9784 25.9212C42.0115 25.7136 41.9421 25.5306 41.8553 25.4049C41.6883 25.163 41.3082 24.9471 40.9001 25.1442L40.8812 25.1533L40.8631 25.164L25.7532 34.0934C24.8551 34.4675 24.5007 35.5147 24.9893 36.3799L26.5369 41.8586C26.6708 42.3644 27.1051 42.5911 27.5036 42.5562Z" fill="#757575" stroke="#757575"/>
</svg>
